# xmcd
#
# Track frame offsets: 
#        150
#        10924
#        20662
#        32280
#        42480
#        56098
#        66701
#        78918
#        90075
#        102660
#        114099
#        125525
#        138397
#        150388
#        161647
#        175214
#        186566
#        197008
#        208070
#        218733
#        231819
#        243122
#        253827
#        265563
#        277535
#        289743
#
# Disc length: 4029 seconds
#
# Revision: 0
# Processed by: cddbd v1.5.2PL0 Copyright (c) Steve Scherf et al.
# Submitted via: ExactAudioCopyFreeDBPlugin 1.0
#
DISCID=670fbb1a
DTITLE=The Dixie Hummingbirds - A Christian Testimonial
DYEAR=2010
DGENRE=Gospel
TTITLE0=The Final Edition
TTITLE1=Oh How I Love Jesus
TTITLE2=I Just Want To Tell You
TTITLE3=Christian's Automobile
TTITLE4=Nobody Knows The Trouble I've Seen
TTITLE5=Are You Ready
TTITLE6=God Is Now Speaking
TTITLE7=We'll Meet Again
TTITLE8=Poor Pilgrim Of Sorrow
TTITLE9=He'll Do The Same For You
TTITLE10=Devil Can't Harm A Praying Man
TTITLE11=Christian Testimonial
TTITLE12=Cool Down Yonder
TTITLE13=Loving Hand
TTITLE14=Just Trusting
TTITLE15=Live On Forever
TTITLE16=Stop By Here
TTITLE17=Just A Little While
TTITLE18=Walls Of Zion
TTITLE19=Let's Go Out To The Programs 1
TTITLE20=Let's Go Out To The Programs 2
TTITLE21=I Don't Know Why
TTITLE22=Make One Step
TTITLE23=Come On And See About Me
TTITLE24=I Want To Feel The Holy Spirit
TTITLE25=What A Friend
EXTD=
EXTT0=
EXTT1=
EXTT2=
EXTT3=
EXTT4=
EXTT5=
EXTT6=
EXTT7=
EXTT8=
EXTT9=
EXTT10=
EXTT11=
EXTT12=
EXTT13=
EXTT14=
EXTT15=
EXTT16=
EXTT17=
EXTT18=
EXTT19=
EXTT20=
EXTT21=
EXTT22=
EXTT23=
EXTT24=
EXTT25=
PLAYORDER=
